<?xml version="1.0" encoding="UTF-8"?>
<svg xmlns="http://www.w3.org/2000/svg" viewBox="0 0 2048 2020.08">
  <defs>
    <style>
      .cls-1 {
        fill: #666;
      }

      .cls-1, .cls-2, .cls-3, .cls-4, .cls-5, .cls-6, .cls-7, .cls-8, .cls-9 {
        stroke-width: 0px;
      }

      .cls-2 {
        fill: #a67c52;
      }

      .cls-4 {
        fill: #1a1a1a;
      }

      .cls-5 {
        fill: var(--aqua);
      }

      .cls-6 {
        fill: none;
      }

      .cls-7 {
        fill: #333;
      }

      .cls-8 {
        fill: #fff;
      }

      .cls-9 {
        fill: #c69c6d;
      }
    </style>
  </defs>
  <g id="Layer_3" data-name="Layer 3">
    <path class="cls-5" d="M1836.2,1551.04c-18.07-5.65-79.88-31.97-121.57-48.16-47.14-24.11-114.48-59.41-143.87-76.82-6.46-8.74-10.78-8.4-12.34-7.85-15.16-11.04-27.61-21.18-35.64-29.26l-24.29-54.39c-4.38-12.97-8.4-24.87-10.18-29.33-4.28-10.69-13.89-24.58-13.89-24.58.53-22.44,5.16-64.02.98-70.48,19.49-22.3,28.46-37.84,41.77-56.7,19.24-27.25,54.45-104.62,60.92-133.07,1.27-5.61,2.45-11.88,3.52-18.72,2.27-6.17,3.7-10.83,4.17-13.66,2.57-15.39,0-25.54,10.26-29.44.37-.14.78-.29,1.21-.44l.07.44.02-.47c11.51-4.03,42.5-11.37,47.43-17.54,5.13-6.41,12.83-12.83,7.7-23.09-4.27-8.54-8.53-15.29-9.84-17.32,1.76-2.99,4.71-7,5.2-11.22.2-1.74.65-4.48,1.2-7.71l5.13-13.77,3.73-47.3c.66-2.89,1.19-5.37,1.42-7.11.5-3.74.53-9.94.43-16.24l1.71-21.7s7.7-41.04,0-66.69c-1.03-3.42-2.33-6.96-3.82-10.52-1.2-4.7-2.32-8.91-3.13-12.03-3.21-12.29-23.17-37.99-23.17-37.99l2.71,7.72c-2.07-3.08-3.38-4.89-3.38-4.89,0,0-1.37-.42-3.45-.54,4.33-2.93,7.3-3.31,7.3-3.31l3.85-20.52,1.28-16.67,12.54-10.26-21.52-20.52,11.54,1.28-1.28-12.83,1.28-28.22-3.85-21.8,13.82-11.54-6.21-25.2,4.78-6.86-12.4-10.26,11.54-10.26s5.13-34.63,0-47.45c-5.13-12.83-15.39-17.96-15.39-17.96l15.39-19.24-10.26-12.83,10.26-19.24-11.54-10.26,5.13-6.41-15.39-2.57,15.39-16.67-44.89,1.28,12.83-12.83-32.06,6.41,32.06-23.09-21.8,6.41,10.26-12.83-56.43,24.37s2.57-12.83,7.7-39.76c5.13-26.93-12.83-67.98-19.24-83.37-6.41-15.39-52.58-67.98-52.58-67.98l-14.11-12.83s5.13-6.41-21.8-25.65c-26.93-19.24-51.3-33.35-91.06-47.45s-84.65-11.54-84.65-11.54c0,0-34.31-3.81-78.9-.05,7.1-.28,47.44-1.22,83.55,11.59,39.76,14.11,64.13,28.22,91.06,47.45,26.93,19.24,21.8,25.65,21.8,25.65l14.11,12.83s46.17,52.58,52.58,67.98c6.41,15.39,24.37,56.43,19.24,83.37-5.13,26.93-7.7,39.76-7.7,39.76l56.43-24.37-10.26,12.83,21.8-6.41-32.06,23.09,32.06-6.41-12.83,12.83,44.89-1.28-15.39,16.67,15.39,2.57-5.13,6.41,11.54,10.26-10.26,19.24,10.26,12.83-15.39,19.24s10.26,5.13,15.39,17.96c5.13,12.83,0,47.45,0,47.45l-11.54,10.26,12.4,10.26-4.78,6.86,6.21,25.2-13.82,11.54,3.85,21.8-1.28,28.22,1.28,12.83-11.54-1.28,21.52,20.52-12.54,10.26-1.28,16.67-3.85,20.52s-2.97.37-7.3,3.31c2.08.13,3.45.54,3.45.54,0,0,1.3,1.81,3.38,4.89l-2.71-7.72s19.96,25.7,23.17,37.99c.81,3.11,1.93,7.33,3.13,12.03,1.48,3.56,2.79,7.1,3.82,10.52,7.7,25.65,0,66.69,0,66.69l-1.71,21.7c.11,6.3.07,12.49-.43,16.24-.23,1.73-.75,4.21-1.42,7.11l-3.73,47.3-5.13,13.77c-.54,3.24-1,5.98-1.2,7.71-.49,4.22-3.44,8.23-5.2,11.22,1.31,2.03,5.57,8.77,9.84,17.32,5.13,10.26-2.56,16.67-7.7,23.09-4.93,6.16-35.93,13.51-47.43,17.54l-.02.47-.07-.44c-.43.15-.84.3-1.21.44-10.26,3.9-7.7,14.05-10.26,29.44-.47,2.83-1.9,7.49-4.17,13.66-1.08,6.84-2.25,13.12-3.52,18.72-6.47,28.45-41.68,105.81-60.92,133.07-13.31,18.86-22.28,34.4-41.77,56.7,4.18,6.47-.44,48.04-.98,70.48,0,0,9.62,13.89,13.89,24.58,1.78,4.46,5.8,16.36,10.18,29.33l24.29,54.39c8.02,8.08,20.48,18.21,35.64,29.26,1.56-.55,5.89-.89,12.34,7.85,29.39,17.41,96.73,52.71,143.87,76.82,41.69,16.19,103.5,42.52,121.57,48.16,25.65,8.02,91.38,28.86,118.64,32.06,27.25,3.21,113.61,46.81,130.64,51.62,6.05,1.71,23.08,8.32,42.53,16.13v-31.87c-32.43-14.49-75.38-33.78-93.17-35.88-27.25-3.21-92.99-24.05-118.64-32.06ZM1929.82,1585.17c1.66.38,3.3.75,4.91,1.11-1.74-.28-3.39-.63-4.91-1.11Z"/>
  </g>
  <g id="Layer_4" data-name="Layer 4">
    <g>
      <path class="cls-6" d="M753.13,1174.82l.16-2.62c-5.99-6.32-12.18-14.05-18.34-22.5-15.86-18.9-27.36-35.47-35.32-48.22l-509.11,509.11c9.98-4.74,20.09-9.54,30.05-14.27l108.38-51.63c21.4-10.42,48.35-23.13,63.99-28.93,12.3-4.56,36.83-11.82,63.42-19.87l298.62-298.62c-1.06-11.85-1.86-21.23-1.86-22.46Z"/>
      <path class="cls-6" d="M397.79,1519.72c14.42-4.13,31.63-9.2,49.56-14.8l2.71-2.71c-19.1,5.86-37.33,11.81-52.27,17.51Z"/>
      <polygon class="cls-6" points="568.72 505.83 570.43 504.12 569.76 501.1 568.72 505.83"/>
      <polygon class="cls-6" points="827.95 104.15 819.25 104.15 814.61 108.79 827.95 104.15"/>
      <polygon class="cls-8" points="2048 1952.27 1982.23 2018.04 2048 2018.04 2048 1952.27"/>
      <polygon class="cls-8" points="2048 1659.69 1689.66 2018.04 1831.08 2018.04 2048 1801.12 2048 1659.69"/>
      <path class="cls-8" d="M1854.73,1586.28c-1.61-.36-3.25-.73-4.91-1.11,1.52.48,3.17.83,4.91,1.11Z"/>
      <path class="cls-8" d="M1874.83,1583.1c-8.71-1.02-21.34-3.85-35.34-7.48l-442.42,442.42h141.42l408.43-408.43c-27.99-12.34-57.98-24.84-72.1-26.5ZM1849.82,1585.17c1.66.38,3.3.75,4.91,1.11-1.74-.28-3.39-.63-4.91-1.11Z"/>
      <path class="cls-8" d="M1634.63,1502.88c-3.2-1.64-6.51-3.33-9.88-5.07l-520.23,520.23h141.42l478.85-478.85c-26.65-10.65-62.75-25.67-90.16-36.31Z"/>
      <path class="cls-8" d="M1490.76,1426.05c-6.46-8.74-10.78-8.4-12.34-7.85-15.16-11.04-27.61-21.18-35.64-29.26l-.54-1.2-630.3,630.3h141.42l572.36-572.36c-14-7.62-26.19-14.42-34.97-19.63Z"/>
      <path class="cls-8" d="M1394.41,1280.63c.53-22.44,5.16-64.02.98-70.48,19.49-22.3,28.46-37.84,41.77-56.7,14.53-20.59,38.19-69.78,51.67-104.87l-969.47,969.47h141.42l735.14-735.14c-.94-1.42-1.52-2.27-1.52-2.27Z"/>
      <path class="cls-8" d="M1579.74,796.79l1.71-21.7s7.7-41.04,0-66.69c-1.03-3.42-2.33-6.96-3.82-10.52-1.2-4.7-2.32-8.91-3.13-12.03-.78-2.98-2.54-6.75-4.77-10.75L268.1,1976.74l41.3,41.3h58.82L1579.74,806.52c.07-2.97.06-6.33,0-9.73Z"/>
      <path class="cls-8" d="M579.75,1487.49c-34.97,10.16-74.16,21.62-101.96,32.23,28.44-8.14,67.76-19.96,101.96-32.23Z"/>
      <path class="cls-8" d="M450.06,1502.21l-2.71,2.71c17.43-5.44,35.54-11.38,52.4-17.43-16.17,4.7-33.25,9.68-49.69,14.72Z"/>
      <path class="cls-8" d="M759.01,1240.02c.31,3.08.6,7.16.89,11.93h0s-.05.1-.13.25c.06-.59.09-.91.09-.91l-5.06,10.61c-3.47,6.78-8.21,16.05-12.63,24.76-9.89,13.68-49.13,67.38-96.05,124.1-2.36,1.46-5.18,3.19-8.41,5.17v-4.89c-.56,2-1.11,3.96-1.66,5.91-11.2,6.84-26.76,16.2-44.36,26.43-14.49,7.26-29.74,14.84-41.62,20.58-18.4,8.9-57.91,21.13-93.7,31.96l-6.31,6.31c16.44-5.04,33.51-10.02,49.69-14.72-16.86,6.05-34.97,11.99-52.4,17.43l-325.53,325.53,70.71,70.71L1561.07,532.62l-2.7-15.32,13.82-11.54-6.21-25.2,4.78-6.86-12.4-10.26,11.54-10.26s5.13-34.63,0-47.45c-2.56-6.4-6.39-10.88-9.59-13.76l-805.33,805.33c1.25,13.9,2.87,31.2,4.02,42.74ZM477.79,1519.72c27.79-10.61,66.99-22.07,101.96-32.23-34.2,12.27-73.52,24.09-101.96,32.23Z"/>
      <polygon class="cls-8" points="1507.28 293.83 1521.99 279.13 1499.37 295.42 1507.28 293.83"/>
      <path class="cls-8" d="M669.35,1034.54c2.36,9.21,5.38,17.9,9.18,23.99.08.12.16.25.23.37l5.97,15.44s4.34,10.21,14.9,27.13l807.65-807.65-7.92,1.58,22.62-16.29,5.7-5.7-18.06,5.31,10.26-12.83-56.43,24.37s2.57-12.83,7.7-39.76c3.02-15.85-1.96-36.59-7.87-54.11l-801.16,801.16c2.57,17.34,4.45,29.75,4.45,29.75l2.79,7.22Z"/>
      <path class="cls-8" d="M81.12,1662.5l-2.66,5.99v54.16l112.07-112.07c-56.7,26.92-109.4,51.91-109.4,51.91Z"/>
      <path class="cls-8" d="M1399.33,99.18l-14.11-12.83s5.13-6.41-21.8-25.65c-11.55-8.25-22.64-15.56-34.67-22.33l-738.2,738.2,2.7,44.47c-.49,31.01-1.38,63.06-1.38,63.06,0,0,0,14.63,1.13,29.1-.11.9-.22,1.79-.32,2.66L1403.99,104.56c-2.89-3.35-4.66-5.37-4.66-5.37Z"/>
      <path class="cls-8" d="M1188.8,1.66c-.72.03-1.1.05-1.1.05,0,0-34.63-3.85-79.52,0-11.27.97-23.03,3.15-35.49,6.25h0s-6.11,0-6.11,0l-496.16,496.16.6,2.7-1.73,21.38,2.67,15.5v-13.23l6.41,41.82v-16.3l7.48,28.86v-15.82l6.73,23.94,5.53,24.88L1213.87,2.11c-12.59-.82-21.97-.57-25.06-.45Z"/>
      <polygon class="cls-8" points="568.72 505.83 567.81 506.74 567.09 513.24 568.72 505.83"/>
      <polygon class="cls-8" points="819.25 104.15 823.93 99.47 807.91 104.15 819.25 104.15"/>
      <path class="cls-8" d="M791.07,116.98l4.01,6.41-77.76,44.09,29.66-7.21-60.92,34.47-20.04,17.64,56.5-30.93s-.01,0-.02.01l-37.49,25.16-12.57,5.75-28.86,31.26,14.43-8.02-24.85,24.85,15.6-10.4c-6.39,6.8-11.51,12.62-15.12,17.13-2.01,2.52-4.03,5.39-6.05,8.55l-16.07,15.18,9.16-3.24c-1.02,1.93-2.04,3.92-3.06,5.97l-12.52,10.1,10.28-5.49c-2.63,5.54-5.23,11.43-7.77,17.53l206.99-206.99-23.53,8.19Z"/>
    </g>
    <g id="Layer_13" data-name="Layer 13">
      <path class="cls-1" d="M1569.74,675.1c-6.95-12.5-18.4-27.24-18.4-27.24l2.71,7.72c-2.07-3.08-3.38-4.89-3.38-4.89,0,0-1.37-.42-3.45-.54,4.33-2.93,7.3-3.31,7.3-3.31l3.85-20.52,1.28-16.67,12.54-10.26-21.52-20.52,11.54,1.28-1.28-12.83,1.28-28.22-1.14-6.48L192.52,1901.17l-70.71-70.71,325.53-325.53c-17.92,5.6-35.14,10.67-49.56,14.8,14.94-5.7,33.17-11.65,52.27-17.51l6.31-6.31c-26.58,8.04-51.12,15.31-63.42,19.87-15.64,5.79-42.59,18.5-63.99,28.93l-108.38,51.63c-9.96,4.73-20.07,9.53-30.05,14.27l-112.07,112.07v295.38h230.94l-41.3-41.3L1569.74,675.1Z"/>
      <path class="cls-1" d="M734.96,1149.71c6.16,8.45,12.34,16.18,18.34,22.5l-.16,2.62c0,1.23.79,10.61,1.86,22.46l805.33-805.33c-3.22-2.9-5.8-4.19-5.8-4.19l15.39-19.24-10.26-12.83,10.26-19.24-11.54-10.26,5.13-6.41-15.39-2.57,15.39-16.67-44.89,1.28,12.83-12.83-24.15,4.83-807.65,807.65c7.96,12.76,19.46,29.32,35.32,48.22Z"/>
      <path class="cls-1" d="M1418.49,1334.55c-4.38-12.97-8.4-24.87-10.18-29.33-3.22-8.06-9.49-17.95-12.37-22.32l-735.14,735.14h151.15l630.3-630.3-23.76-53.19Z"/>
      <path class="cls-1" d="M1498.08,1020.38c1.27-5.61,2.45-11.88,3.52-18.72,2.27-6.17,3.7-10.83,4.17-13.66,2.57-15.39,0-25.54,10.26-29.44.37-.14.78-.29,1.21-.44l.07.44.02-.47c11.51-4.03,42.5-11.37,47.43-17.54,5.13-6.41,12.83-12.83,7.7-23.09-4.27-8.54-8.53-15.29-9.84-17.32,1.76-2.99,4.71-7,5.2-11.22.2-1.74.65-4.48,1.2-7.71l5.13-13.77,3.73-47.3c.66-2.89,1.19-5.37,1.42-7.11.23-1.73.36-3.98.42-6.51L368.22,2018.04h151.15l969.47-969.47c4.36-11.36,7.67-21.24,9.25-28.19Z"/>
      <polygon class="cls-1" points="1531.43 272.33 1527.68 273.43 1521.99 279.13 1531.43 272.33"/>
      <path class="cls-1" d="M569.76,501.1l.67,3.02L1066.59,7.96h-16.6l-36.07,13.63-61.72,20.84-40.08,13.63-28.06,17.64-34.47,15.23h5.95c-1.65.91-3.29,1.83-4.94,2.75l-26.67,7.8-4.68,4.68h8.7l-13.34,4.64-206.99,206.99c-.67,1.62-1.35,3.24-2.01,4.88l-7.45,9.8,4.37-2.02c-.46,1.19-.92,2.39-1.38,3.6l-12.4,14.99,7.51-1.74c-1.31,3.67-2.59,7.34-3.84,11l-8.7,13.18,5.02-2.2c-1.4,4.27-2.74,8.48-4.03,12.6l-13.29,24.87,10.03-14.24c-1.48,4.94-2.87,9.68-4.14,14.15l-8.02,17.19,3.87-2.12c-.56,2.12-1.08,4.11-1.56,5.98l-4.52,3.62,3.82-.87c-.47,1.88-.88,3.59-1.24,5.11l-5.72,7.52,4.74-3.16c-.2.96-.36,1.78-.47,2.41-.4,2.38-.67,5.31-.85,8.56l-3.43,9.82,3.23-4.84c-.1,3.79-.11,7.81-.06,11.81l-3.17,13.34,3.3-6.37c.08,2.94.18,5.76.29,8.34l-3.59,15.13,3.85-9.47c.23,4.59.43,7.55.43,7.55l.65,2.94-1.07,9.59.91-.91,1.04-4.73Z"/>
      <path class="cls-1" d="M1451.91,167.16c-5.16-12.38-36.04-48.82-47.92-62.6l-811.32,811.32c-1.72,14.23-2.93,24.91,1.21,32.36,4.5,8.11,36.23,24.45,54.7,33.45l.35.22,12.02,7.85c.4,2.7.78,5.32,1.16,7.83L1463.28,196.42c-4.13-12.25-8.73-22.93-11.36-29.26Z"/>
      <path class="cls-1" d="M1272.35,13.25c-20.4-7.24-42.14-10.09-58.49-11.15l-615.74,615.74,4.73,21.29,13.47,39.32c-.39.26-.76.52-1.14.77-2.45-1.67-5.71-1.83-9.76,2.23-1.89,1.89-3.64,5.3-5.26,9.6-4.78,4.88-7.36,9.77-7.36,15.62,0,3.26-.2,9.1-.41,15.88-2.35,13.18-3.65,24.3-3.65,24.3l1.8,29.7L1328.75,38.38c-16.01-9.01-33.69-17.07-56.39-25.12Z"/>
      <polygon class="cls-1" points="2048 1801.12 1831.08 2018.04 1982.23 2018.04 2048 1952.27 2048 1801.12"/>
      <path class="cls-1" d="M1756.2,1551.04c-6.19-1.93-17.52-6.3-31.41-11.85l-478.85,478.85h151.15l442.42-442.42c-29.82-7.73-65.84-19.13-83.3-24.58Z"/>
      <path class="cls-1" d="M2048,1650.85c-19.44-7.81-36.47-14.42-42.53-16.13-8.21-2.32-32.51-13.64-58.54-25.11l-408.43,408.43h151.15l358.34-358.34v-8.84Z"/>
      <path class="cls-1" d="M1525.72,1445.68l-572.36,572.36h151.15l520.23-520.23c-31.42-16.15-69.34-35.98-99.02-52.13Z"/>
    </g>
  </g>
  <g id="Layer_1" data-name="Layer 1">
    <g id="Layer_7" data-name="Layer 7">
      <g id="Layer_12" data-name="Layer 12">
        <path class="cls-7" d="M280.16,1532.61s145.49-38.29,196.79-66.62c51.3-28.34,98.86-58.26,98.86-58.26,0,0,72.14-87.64,80.69-104.74,8.55-17.1,24.93-48.99,24.93-48.99l634.52,28.69s9.62,13.89,13.89,24.58c4.28,10.69,21.38,64.13,25.65,72.68,4.28,8.55,21.38,23.51,44.89,40.61,23.51,17.1,190.25,102.6,205.21,109.02,8.04,3.45,91.68,34.36,165.75,57.64,10.45,3.29,26.79,1.01,42.21,6.18,11.4,3.82,21.02,14.74,34.04,19.2,87.2,29.85,200.4,70.41,200.4,72.6v334.9H0v-349.54l142.11-72.17,138.05-65.76Z"/>
      </g>
      <g id="Layer_11" data-name="Layer 11">
        <path class="cls-4" d="M1315.95,1282.68s52.37,142.15,52.37,175.82,17.64,115.43,17.64,139.48,0,68.94,8.02,102.6c8.02,33.67,28.86,56.11,28.86,56.11,0,0,13.03-33.67,16.13-51.3,3.1-17.64,9.52-32.06,9.52-32.06,0,0-6.41-9.62,12.83,12.83l19.24,22.44s12.83-28.86,0-57.72c-12.83-28.86-22.44-75.35-22.44-75.35,0,0,18.35,40.08,35.63,70.54s46.14,51.3,46.14,51.3c0,0-104.21-251.7-128.26-266.13-24.05-14.43-46.49-38.48-46.49-38.48l-49.16-110.09h0"/>
        <path class="cls-4" d="M1107,1936.25s49.7-54.51,54.51-64.13c4.81-9.62,32.06-17.05,54.51-38.98,22.44-21.94,41.68-50.8,41.68-50.8l-43.29,20.84s32.06-94.59,43.29-133.07c11.22-38.48,19.24-72.14,28.86-126.65,9.62-54.51,27.34-99.4,32.11-149.1,4.77-49.7.04-86.57,0-92.99s-91.42,293.38-91.42,293.38c0,0-70.06,211.18-63.73,208.57,6.33-2.61,20.98-10.31,20.98-10.31l-22.98,47.03s-4.81,17.64-27.25,46.49c-22.44,28.86-27.25,49.7-27.25,49.7Z"/>
        <path class="cls-4" d="M1148.15,1956.38l51.3-4.63,100.47-48.1s21.38-22.44,24.58-34.2c3.21-11.76,8.55-36.31,8.55-36.31,0,0,0,2.11,35.27,13.87,35.27,11.76,82.3,28.86,105.81,29.93,23.51,1.07,52.37,8.55,74.82,6.41,22.44-2.14,41.68-1.07,54.51-2.14,12.83-1.07,40.61,3.21,49.16-3.21,8.55-6.41,9.62-29.93,9.62-29.93,0,0-8.55,0-24.58-24.58-16.03-24.58-92.99-116.5-120.77-195.59s-81.23-151.77-95.12-182.76c-13.89-31-22.44-24.58-22.44-24.58l8.28,7.88,70.14,122.24,24.85,49.7,15.23,38.48,48.9,89.78,47.29,66.93,29.66,40.48s14.83,12.42,14.03,15.23c-.8,2.81,2.4,7.62-3.21,10.02-5.61,2.4-45.29,7.21-53.71,6.81-8.42-.4-25.65,4.01-62.12,1.2-36.47-2.81-68.14-4.81-109.42-18.04-41.28-13.23-74.15-22.85-89.78-30.86-15.63-8.02-5.21-2-5.21-2,0,0-4.41,13.23-8.02,22.44-3.61,9.22-4.73,25.25-7.57,28.86s-31.3,18.84-35.31,19.24c-4.01.4-24.45,18.84-27.66,22.85-3.21,4.01-41.68,22.04-41.68,22.04,0,0-45.69,17.23-59.72,18.44-14.03,1.2-6.15,4.1-6.15,4.1Z"/>
        <path class="cls-4" d="M560.31,1421.62c57.72-68.94,105.81-136.27,105.81-136.27l15.27-32.02s-8.04,80.51,0,125c8.04,44.49,45.65,165.31,68.09,215.06,22.44,49.75,123.45,278.73,123.45,278.73,0,0-51.3-57.72-62.52-67.33-11.22-9.62-75.35-169.94-75.35-169.94,0,0-62.52-104.21-70.54-137.87-8.02-33.67-3.21-75.35-3.21-75.35l-11.22,70.54s-8.02,54.51-1.6,65.73c6.41,11.22-17.64,1.6-24.05-35.27-6.41-36.87-1.6-88.18-3.21-109.02-1.6-20.84-22.44,52.38-22.44,52.38,0,0-20.31,31.56-11.76,47.3,8.55,15.74-18.17-31.79-19.24-47.3-1.07-15.51-7.48-20.32-7.48-20.32l-12.23-11.22,12.23-12.83Z"/>
        <path class="cls-4" d="M559.24,1413.07c-18.17,65.2-34.2,102.6-35.27,121.84-1.07,19.24-42.75,152.84-48.1,167.8-5.34,14.96-31,96.19-32.06,106.88-1.07,10.69-21.38,53.44-20.31,65.2,1.07,11.76-1.07,13.89,5.34,13.89s16.03,3.21,45.96-6.41c29.93-9.62,26.75-4.28,95.67-27.79,68.92-23.51,121.3-40.61,142.67-50.23,21.38-9.62,17.1-10.69,17.1-10.69,0,0,11.76,8.55,18.17,20.31,6.41,11.76,51.3,63.06,55.58,66.27,4.28,3.21,39.55,42.75,52.37,51.3,12.83,8.55,40.61,23.51,60.92,23.51s53.44,3.21,60.92,0c7.48-3.21-16.03-5.34-16.03-5.34,0,0-33.13-2.14-47.03-6.41-13.89-4.28-20.31,17.1-69.47-36.34-49.16-53.44-72.68-81.23-79.09-91.92-6.41-10.69-33.13-32.06-33.13-32.06,0,0-89.78,39.55-110.09,44.89-20.31,5.34-97.9,21.38-113.08,26.72-15.18,5.34-42.26,20.19-64.34,23.51-22.08,3.32-16.03-1.07-16.03-1.07l7.48-31,17.64-67.87,44.89-142.68,36.34-137.34,22.98-71.61v-13.36Z"/>
        <path class="cls-4" d="M2.66,1664.55s228.7-108.46,245.79-116.81c21.7-10.6,49.89-23.95,66.04-29.93,28.86-10.69,125.05-36.31,157.11-51.82,32.06-15.51,88.71-44.37,88.71-44.37,0,0-29.93,33.13-76.95,49.16-47.03,16.03-168.87,45.96-195.59,66.27C261.05,1557.36,0,1670.54,0,1670.54l2.66-5.99Z"/>
        <path class="cls-4" d="M1399.32,1420.55s100.47,68.4,119.71,71.61c19.24,3.21,133.07,52.91,158.72,60.92,25.65,8.02,91.38,28.86,118.64,32.06,27.25,3.21,113.61,46.81,130.64,51.62,17.03,4.81,120.98,48.42,120.98,48.42,0,0-161.85-58.46-190.7-66.42-28.86-7.97-39.01-20.79-42.22-21.86-3.21-1.07-119.17-24.58-128.26-34.2-9.08-9.62-140.01-50.23-152.84-56.65-12.83-6.41-106.08-59.85-106.08-59.85l-28.59-25.65Z"/>
      </g>
    </g>
    <g id="Layer_9" data-name="Layer 9">
      <path class="cls-9" d="M674.67,1176.87c0,2.67,3.74,43.82,5.88,65.2,2.14,21.38,3.74,90.85,3.21,102.6-.53,11.76,1.6,81.76,14.43,114.36,12.83,32.6,29.93,91.38,43.29,117.57,13.36,26.19,69.47,156.04,76.95,169.4,7.48,13.36,9.62,21.91,13.36,27.25,3.74,5.34,63.06,34.2,72.14,36.34,9.08,2.14,54.51,14.43,63.59,15.5,9.08,1.07,66.37,8.55,74.07,8.02,7.7-.53,63.27-8.55,67.01-9.62,3.74-1.07,72.68-25.12,75.88-30.46,3.21-5.34,33.13-86.04,38.48-106.88,5.34-20.84,33.67-115.96,34.74-122.91,1.07-6.95,45.96-152.84,47.56-177.95,1.6-25.12,10.15-80.16,10.69-102.6.53-22.44,5.16-64.02.98-70.49s-121.75-41.2-121.75-41.2l-515.69-72.14-4.81,78.02Z"/>
      <path class="cls-9" d="M542.36,689.92s-5.13-16.67-15.39-6.41-16.67,65.41-16.67,65.41l5.13,84.65s2.57,29.5,1.28,57.72c-1.28,28.22-7.7,47.45-1.28,59,6.41,11.54,67.98,39.76,67.98,39.76,0,0,3.85,50.02,16.67,70.54,12.83,20.52,52.58,96.19,83.37,121.84,30.78,25.65,61.56,56.43,123.13,94.91,61.56,38.48,143.65,80.8,168.01,85.93s66.69,5.13,84.65,0c17.96-5.13,160.32-78.24,203.93-110.3,43.61-32.06,48.74-29.5,89.78-103.89,41.04-74.39,71.82-143.65,74.39-159.04,2.57-15.39,0-25.54,10.26-29.44,10.26-3.9,43.61-11.6,48.74-18.01,5.13-6.41,12.83-12.83,7.7-23.09-5.13-10.26-10.26-17.96-10.26-17.96l11.95-32.06,7.29-92.34s7.7-41.04,0-66.69c-7.7-25.65-30.78-57.72-30.78-57.72,0,0-17.53-5.34-22.66,16.46-5.13,21.8-22.18-19.24-22.18-19.24l-18.01-117.78-144.93-279.6-491.22-50.02-119.28,221.88-80.8,275.75-30.78-10.26Z"/>
      <path class="cls-2" d="M606.27,1076.4s31.53,74.28,132,154.44c22.44,14.43,118.1,86.57,184.37,110.62,42.22,25.65,111.69,40.08,159.25,12.83,62.52-25.65,155.51-63.59,201.47-107.41,45.96-43.82,56.11-64.13,75.35-91.38,19.24-27.25,54.45-104.62,60.92-133.07,22.81-100.29,13.01-413.53,8.02-391.18l-70.54-182.76-83.37-121.84s-32.06-30.46-28.86-8.02c3.21,22.44,9.62,83.37,12.83,112.22,3.21,28.86,3.21,52.91,20.84,62.52,17.64,9.62,62.52,36.87,70.54,54.51,8.02,17.64,0,64.13,12.83,102.6,12.83,38.48-8.02,104.21-8.02,123.45s-8.02,101,0,128.26c8.02,27.25,0,107.41-3.21,131.46-3.21,24.05-4.81,52.91-17.64,76.95-12.83,24.05-30.46,44.89-88.18,75.35-57.72,30.46-178.92,91.38-203.29,91.38s-75.67,0-118.96-25.65c-43.29-25.65-168.34-65.73-193.99-99.4-25.65-33.67-73.75-24.05-86.57-113.83-12.83-89.78-30.46-91.38-12.83-147.49,17.64-56.11,38.48-168.34,38.48-203.61s17.64-97.79,36.87-136.27c19.24-38.48,84.97-104.21,92.99-139.48,8.02-35.27,4.81-78.56-8.02-81.76-12.83-3.21-99.4,41.68-120.24,84.97-20.84,43.29-76.95,160.32-83.37,195.59s-19.24,264.53-14.43,303c4.81,38.48,16.57,115.96,16.57,115.96l18.17,47.03Z"/>
      <path class="cls-2" d="M537.87,680.51c-14.96,10.06-23.51,17.54-23.51,28.22s-2.14,49.16,0,57.72c2.14,8.55-.95,119.71-.95,119.71,0,0,0,40.61,5.23,53.44,5.23,12.83,13.89,21,13.89,21l37.96,23.35,12.28,8.02-2.98-16.07-44.05-24.54s-11.76-2.14-12.83-27.25c-1.07-25.12-5.34-20.84-2.14-62.52s-1.07-41.68,0-92.99c1.07-51.3-2.14-41.63,11.76-52.37,13.89-10.74,18.44-20.31,18.44-20.31l-13.09-15.4h0"/>
      <path class="cls-2" d="M1472.88,649.9s19.96,25.7,23.17,37.99,11.22,41.68,9.62,50.77c-1.6,9.08-4.81,34.2-4.81,41.68s1.07,26.72,0,34.74-8.37,32.06-7.13,39.01c1.25,6.95-3.54,29.93-4.35,36.87-.81,6.95-8.29,13.36-6.16,15.5,2.14,2.14,3.23,6.95,6.16,12.29s6.16,6.95,0,14.43c-6.16,7.48-50.41,25.05-50.41,25.05l42.11-27.19s4.81,1.6,0-10.69c-4.81-12.29-3.74-19.24-3.74-19.24,0,0,1.07,3.21,4.81-8.02,3.74-11.22,11.58-77.49,11.58-77.49,0,0-3.38,21.91,0-21.38,3.38-43.29,4.45-42.22,3.92-52.91-.53-10.69-.36-11.22-3.92-27.79s-17.46-53.97-17.46-53.97l-3.39-9.67h0"/>
    </g>
    <g id="Layer_10" data-name="Layer 10">
      <path class="cls-3" d="M1483.75,582.19l-1.28-12.83,1.28-28.22-3.85-21.8,13.82-11.54-6.21-25.2,4.78-6.86-12.4-10.26,11.54-10.26s5.13-34.63,0-47.45c-5.13-12.83-15.39-17.96-15.39-17.96l15.39-19.24-10.26-12.83,10.26-19.24-11.54-10.26,5.13-6.41-15.39-2.57,15.39-16.67-44.89,1.28,12.83-12.83-32.06,6.41,32.06-23.09-21.8,6.41,10.26-12.83-56.43,24.37s2.57-12.83,7.7-39.76c5.13-26.93-12.83-67.98-19.24-83.37-6.41-15.39-52.58-67.98-52.58-67.98l-14.11-12.83s5.13-6.41-21.8-25.65c-26.93-19.24-51.3-33.35-91.06-47.45-39.76-14.11-84.65-11.54-84.65-11.54,0,0-34.63-3.85-79.52,0-7.8.67-15.85,1.93-24.19,3.67-23.04,0-48.79,2.42-48.79,2.42l13.77.55-12.64,4.77-55.02,5.8,36.57.47c-12.05,1.45-22.97,3.08-32.79,4.79-2.96.44-5.56.9-7.62,1.38-3.17.6-6.22,1.2-9.13,1.81l.74-2.3-22.58,7.42c-11.47,3.05-19.65,5.86-24.78,7.91-1.18.47-2.27.91-3.3,1.32l-47.46,15.6,21.2-4.13c-5.45,2.59-12.15,5.79-19.04,9.05l-16.13,5.54,4.96-.27c-3.7,1.74-7.26,3.41-10.53,4.93-2.52.57-4.74,1.12-6.41,1.62-3.59,1.05-10.6,4.61-18.02,8.66-4.28,1.26-5.64,1.03-5.64,1.03,0,0-5.48,4.03-13.3,9.78-4.5,2.65-7.52,4.48-7.52,4.48l2.34-.69c-3.65,2.68-7.61,5.58-11.63,8.52l-23.79,8.7,19.26-5.39c-2.59,1.89-5.16,3.77-7.67,5.6l-36.12,17.48,18.02-4.38c-3.36,2.4-5.66,4-6.33,4.38-3.99,2.28-11.41,5.7-11.41,5.7,0,0-.56.62-1.53,1.7l-24.42,13.7,19.83-8.62c-.64.7-1.32,1.45-2.02,2.22l-33.77,20.08,25.66-14.83-46.19,35.36,31.94-21.1-50.76,42.77,19.87-10.74-4.61,4.06-34.36,27.78,19.1-7.98-31.94,27.94,17.12-10.5-3.57,3.86.86-.48-20.69,23.65,13.69-5.13-13.69,17.11.87-.22-13.1,12.37,9.16-3.24c-1.02,1.93-2.04,3.92-3.06,5.97l-12.52,10.1,10.28-5.49c-3.33,7.01-6.61,14.57-9.78,22.41l-7.45,9.8,4.37-2.02c-.46,1.19-.92,2.39-1.38,3.6l-12.4,14.99,7.51-1.74c-1.31,3.67-2.59,7.34-3.84,11l-8.7,13.18,5.02-2.2c-.5,1.52-.99,3.03-1.47,4.53l-1.43.2c-10.08,5.32-16.16,11.41-16.16,11.41,0,0,13.31-6.78,16.03-6.73-.2.62-.39,1.23-.58,1.85-4.44,4.77-19.21,15.61-19.21,15.61,0,0,16-9.45,14.11-7.77-1.89,1.68-13.51,12.72-13.65,12.97-.14.25,11.05-6.52,11.05-6.52l-12.97,13.26,5.6-2.32-8.06,8.48,7.02-5.06-8.13,9.84,10.37-3.74c-.15.39-.29.77-.43,1.15l-6.95,9.18,2.99,2.14h1.28c.02.81.07,1.67.14,2.58l-1.22.98,1.28-.29c.07.84.16,1.72.27,2.64l-.9,1.08.95-.63c.09.76.2,1.53.31,2.33l-5.05,6.64,4.74-3.16c-.04.2-.09.41-.13.6-.24.45-.34.71-.25.64.03-.02.08-.06.15-.1-.09.47-.17.91-.23,1.27-.4,2.38-.67,5.31-.85,8.56l-3.43,9.82,3.23-4.84c-.1,3.79-.11,7.81-.06,11.81l-3.17,13.34,3.3-6.37c.08,2.94.18,5.76.29,8.34l-3.59,15.13,3.85-9.47c.23,4.59.43,7.55.43,7.55l.65,2.94-1.79,16.09,2.67-12.13,1.27,5.72-1.73,21.38,2.67,15.5v-13.23l6.41,41.82v-16.3l.55,2.13c-.18.73-.27,1.12-.21.96.03-.09.15-.26.33-.51l6.81,26.28v-10.38l1.18-1.23,1.41,5.02-.61,1.64.86-.75,1.56,5.55-.71,2.91,1.35-.64,1.69,6.02.11.49-1.15,3.54,1.76-.8,2.62,11.81-.96,2.68,1.38-.79.79,3.56-1.32,1.23,1.74.7,5.28,23.76,32.06,93.63,10.26,55.15v115.43l16.03,86.57,9.62,7.05,2.57-7.05-2.57-37.84-3.85-48.74v-64.13l2.57-137.23s16.67-111.58,23.09-143.65,50.02-110.3,50.02-110.3c0,0,15.39-30.78,32.06-51.3,16.67-20.52,30.78-24.37,62.85-51.3,32.06-26.93,100.04-55.15,144.93-74.39,44.89-19.24,67.98-20.52,67.98-20.52,0,0,46.17-3.85,69.58-2.57,23.41,1.28,40.72,29.5,40.72,29.5,0,0,42.32,8.98,67.98,6.41,25.65-2.57,73.11,37.19,73.11,37.19l-19.24-23.09s24.37,6.41,44.89,12.83c20.52,6.41,42.32,29.5,50.02,65.41,7.7,35.91,6.41,48.74,6.41,48.74,0,0,62.85,56.43,75.67,83.37,12.83,26.93,10.26,28.22,20.52,66.69,10.26,38.48,16.67,157.75,16.67,157.75l6.41,139.8,6.09,37.13v10.75l4.28,16.03v-.73l3.74,22.8,1.28-29.55,5.13-44.89-3.85-71.82-1.28-60.28,6.41-29.5s-1.28-41.04,8.98-57.72c10.26-16.67,20.52-17.96,20.52-17.96l3.85-20.52,1.28-16.67,12.54-10.26-21.52-20.52,11.54,1.28ZM507.41,576.35v-5.28l.38,1.35c-.22,1.9-.34,3.46-.38,3.93Z"/>
    </g>
  </g>
</svg>
